<svg id="Layer_5" height="300" viewBox="0 0 24 24" width="300" xmlns="http://www.w3.org/2000/svg" data-name="Layer 5" version="1.1" xmlns:xlink="http://www.w3.org/1999/xlink" xmlns:svgjs="http://svgjs.dev/svgjs"><g transform="matrix(1,0,0,1,0,0)"><path d="m19 4v-1a1 1 0 0 0 -2 0v1h-4v-1a1 1 0 0 0 -2 0v1h-4v-1a1 1 0 0 0 -2 0v1a5.0059 5.0059 0 0 0 -5 5v8a5.0059 5.0059 0 0 0 5 5h14a5.0059 5.0059 0 0 0 5-5v-8a5.0059 5.0059 0 0 0 -5-5zm-14 2h14a2.995 2.995 0 0 1 2.8157 2h-19.6314a2.995 2.995 0 0 1 2.8157-2zm14 14h-14a3.0033 3.0033 0 0 1 -3-3v-7h20v7a3.0033 3.0033 0 0 1 -3 3z" fill="#271e8e" fill-opacity="1" data-original-color="#000000ff" stroke="none" stroke-opacity="1"/><path d="m13 12h-2a1 1 0 0 0 0 2h2a1 1 0 0 0 0-2z" fill="#271e8e" fill-opacity="1" data-original-color="#000000ff" stroke="none" stroke-opacity="1"/><path d="m19 12h-2a1 1 0 0 0 0 2h2a1 1 0 0 0 0-2z" fill="#271e8e" fill-opacity="1" data-original-color="#000000ff" stroke="none" stroke-opacity="1"/><path d="m7 16h-2a1 1 0 0 0 0 2h2a1 1 0 0 0 0-2z" fill="#271e8e" fill-opacity="1" data-original-color="#000000ff" stroke="none" stroke-opacity="1"/><path d="m13 16h-2a1 1 0 0 0 0 2h2a1 1 0 0 0 0-2z" fill="#271e8e" fill-opacity="1" data-original-color="#000000ff" stroke="none" stroke-opacity="1"/><path d="m19 16h-2a1 1 0 0 0 0 2h2a1 1 0 0 0 0-2z" fill="#271e8e" fill-opacity="1" data-original-color="#000000ff" stroke="none" stroke-opacity="1"/></g></svg>