<svg id="Layer_5" height="300" viewBox="0 0 24 24" width="300" xmlns="http://www.w3.org/2000/svg" data-name="Layer 5" version="1.1" xmlns:xlink="http://www.w3.org/1999/xlink" xmlns:svgjs="http://svgjs.dev/svgjs"><g transform="matrix(1,0,0,1,0,0)"><path d="m19 4v-1a1 1 0 0 0 -2 0v1h-4v-1a1 1 0 0 0 -2 0v1h-4v-1a1 1 0 0 0 -2 0v1a5.0018 5.0018 0 0 0 -5 5v8a5.0018 5.0018 0 0 0 5 5h14a5.0018 5.0018 0 0 0 5-5v-8a5.0018 5.0018 0 0 0 -5-5zm-12 14h-2a1 1 0 0 1 0-2h2a1 1 0 0 1 0 2zm6 0h-2a1 1 0 0 1 0-2h2a1 1 0 0 1 0 2zm0-4h-2a1 1 0 0 1 0-2h2a1 1 0 0 1 0 2zm6 4h-2a1 1 0 0 1 0-2h2a1 1 0 0 1 0 2zm0-4h-2a1 1 0 0 1 0-2h2a1 1 0 0 1 0 2zm-16.82-6a3.01 3.01 0 0 1 2.82-2h14a3.01 3.01 0 0 1 2.82 2z" fill="#271e8e" fill-opacity="1" data-original-color="#000000ff" stroke="none" stroke-opacity="1"/></g></svg>