<svg id="Layer_5" height="300" viewBox="0 0 24 24" width="300" xmlns="http://www.w3.org/2000/svg" data-name="Layer 5"
     version="1.1" xmlns:xlink="http://www.w3.org/1999/xlink" xmlns:svgjs="http://svgjs.dev/svgjs">
    <g transform="matrix(1,0,0,1,0,0)">
        <path d="m23 20v-15a3.0088 3.0088 0 0 0 -3-3h-4a3.0088 3.0088 0 0 0 -3 3v15h-2v-10a3.0088 3.0088 0 0 0 -3-3h-4a3.0088 3.0088 0 0 0 -3 3v10a1 1 0 0 0 0 2h22a1 1 0 0 0 0-2zm-16-3a1 1 0 0 1 -2 0v-5a1 1 0 0 1 2 0zm12 0a1 1 0 0 1 -2 0v-10a1 1 0 0 1 2 0z"
              fill="#271e8e" fill-opacity="1" data-original-color="#000000ff" stroke="none" stroke-opacity="1"/>
    </g>
</svg>