<svg id="Layer_5" height="300" viewBox="0 0 24 24" width="300" xmlns="http://www.w3.org/2000/svg" data-name="Layer 5" version="1.1" xmlns:xlink="http://www.w3.org/1999/xlink" xmlns:svgjs="http://svgjs.dev/svgjs"><g transform="matrix(1,0,0,1,0,0)"><path d="m23 20v-15a3.0033 3.0033 0 0 0 -3-3h-4a3.0033 3.0033 0 0 0 -3 3v15h-2v-10a3.0033 3.0033 0 0 0 -3-3h-4a3.0033 3.0033 0 0 0 -3 3v10a1 1 0 0 0 0 2h22a1 1 0 0 0 0-2zm-8-15a1.0013 1.0013 0 0 1 1-1h4a1.0013 1.0013 0 0 1 1 1v15h-6zm-12 5a1.0013 1.0013 0 0 1 1-1h4a1.0013 1.0013 0 0 1 1 1v10h-6z" fill="#271e8e" fill-opacity="1" data-original-color="#000000ff" stroke="none" stroke-opacity="1"/><path d="m18 18a1 1 0 0 1 -1-1v-10a1 1 0 0 1 2 0v10a1 1 0 0 1 -1 1z" fill="#271e8e" fill-opacity="1" data-original-color="#000000ff" stroke="none" stroke-opacity="1"/><path d="m6 18a1 1 0 0 1 -1-1v-5a1 1 0 0 1 2 0v5a1 1 0 0 1 -1 1z" fill="#271e8e" fill-opacity="1" data-original-color="#000000ff" stroke="none" stroke-opacity="1"/></g></svg>