<svg id="Layer_5" height="300" viewBox="0 0 24 24" width="300" xmlns="http://www.w3.org/2000/svg" data-name="Layer 5" version="1.1" xmlns:xlink="http://www.w3.org/1999/xlink" xmlns:svgjs="http://svgjs.dev/svgjs"><g transform="matrix(1,0,0,1,0,0)"><path d="m20 7.1v-1.1a5.0018 5.0018 0 0 0 -5-5h-10a5.0018 5.0018 0 0 0 -5 5v8.38a2.6131 2.6131 0 0 0 3.79 2.34l.27-.13a4.9783 4.9783 0 0 0 4.94 4.41h7.62a.5189.5189 0 0 1 .27.07l3.32 1.65a2.6513 2.6513 0 0 0 1.17.28 2.6162 2.6162 0 0 0 2.62-2.62v-8.38a5.0169 5.0169 0 0 0 -4-4.9zm-16 4.9v2.38l-1.11.56a.6389.6389 0 0 1 -.89-.56v-8.38a3.0088 3.0088 0 0 1 3-3h10a3.0088 3.0088 0 0 1 3 3v1h-9a5.0018 5.0018 0 0 0 -5 5z" fill="#271e8e" fill-opacity="1" data-original-color="#000000ff" stroke="none" stroke-opacity="1"/></g></svg>