<svg xmlns="http://www.w3.org/2000/svg" id="Layer_5" data-name="Layer 5" viewBox="0 0 24 24" width="300" height="300" version="1.1" xmlns:xlink="http://www.w3.org/1999/xlink" xmlns:svgjs="http://svgjs.dev/svgjs"><g transform="matrix(1,0,0,1,0,0)"><path d="M20,7.1011V6a5.0059,5.0059,0,0,0-5-5H5A5.0059,5.0059,0,0,0,0,6v8.38a2.6182,2.6182,0,0,0,3.7871,2.3447l.2724-.1362A4.99,4.99,0,0,0,9,21h7.6182a.6158.6158,0,0,1,.2763.0654l3.3164,1.6582A2.6182,2.6182,0,0,0,24,20.3818V12A5.0083,5.0083,0,0,0,20,7.1011ZM4,12v2.3818l-1.1094.5547A.6337.6337,0,0,1,2,14.38V6A3.0033,3.0033,0,0,1,5,3H15a3.0033,3.0033,0,0,1,3,3V7H9A5.0059,5.0059,0,0,0,4,12Zm18,8.3818a.6364.6364,0,0,1-.8945.5528l-3.3164-1.6582A2.6326,2.6326,0,0,0,16.6182,19H9a3.0033,3.0033,0,0,1-3-3V12A3.0033,3.0033,0,0,1,9,9H19a3.0033,3.0033,0,0,1,3,3Z" fill="#271e8e" fill-opacity="1" data-original-color="#000000ff" stroke="none" stroke-opacity="1"/></g></svg>