<svg id="Layer_5" height="300" viewBox="0 0 24 24" width="300" xmlns="http://www.w3.org/2000/svg" data-name="Layer 5" version="1.1" xmlns:xlink="http://www.w3.org/1999/xlink" xmlns:svgjs="http://svgjs.dev/svgjs"><g transform="matrix(1,0,0,1,0,0)"><path d="m19 23h-14a2.002 2.002 0 0 1 -2-2v-8a2.002 2.002 0 0 1 -2-2v-.5508a2.0042 2.0042 0 0 1 .67-1.4946l8.3809-7.45a2 2 0 0 1 1.3291-.5046h1.24a1.9983 1.9983 0 0 1 1.3286.5049l8.3809 7.4492a2.0048 2.0048 0 0 1 .6705 1.4951v.5508a2.002 2.002 0 0 1 -2 2v8a2.002 2.002 0 0 1 -2 2zm-6.38-20h-1.24l-8.38 7.4492v.5508a2.002 2.002 0 0 1 2 2v8.0015l14-.0015v-8a2.002 2.002 0 0 1 2-2v-.5508z" fill="#1c0f7f" fill-opacity="1" data-original-color="#000000ff" stroke="none" stroke-opacity="1"/><path d="m15 20a1 1 0 0 1 -1-1v-1a1.0013 1.0013 0 0 0 -1-1h-2a1.0013 1.0013 0 0 0 -1 1v1a1 1 0 0 1 -2 0v-1a3.0033 3.0033 0 0 1 3-3h2a3.0033 3.0033 0 0 1 3 3v1a1 1 0 0 1 -1 1z" fill="#1c0f7f" fill-opacity="1" data-original-color="#000000ff" stroke="none" stroke-opacity="1"/></g></svg>