<svg id="Layer_5" height="300" viewBox="0 0 24 24" width="300" xmlns="http://www.w3.org/2000/svg" data-name="Layer 5" version="1.1" xmlns:xlink="http://www.w3.org/1999/xlink" xmlns:svgjs="http://svgjs.dev/svgjs"><g transform="matrix(1,0,0,1,0,0)"><path d="m22.33 8.95-8.38-7.45a2.0332 2.0332 0 0 0 -1.33-.5h-1.24a2.0332 2.0332 0 0 0 -1.33.5l-8.38 7.45a2.0018 2.0018 0 0 0 -.67 1.5v.55a2.0059 2.0059 0 0 0 2 2v8a2.0059 2.0059 0 0 0 2 2h14a2.0059 2.0059 0 0 0 2-2v-8a2.0059 2.0059 0 0 0 2-2v-.55a2.0018 2.0018 0 0 0 -.67-1.5zm-6.33 10.05a1 1 0 0 1 -2 0v-1a1.0013 1.0013 0 0 0 -1-1h-2a1.0013 1.0013 0 0 0 -1 1v1a1 1 0 0 1 -2 0v-1a3.0033 3.0033 0 0 1 3-3h2a3.0033 3.0033 0 0 1 3 3z" fill="#142677" fill-opacity="1" data-original-color="#000000ff" stroke="none" stroke-opacity="1"/></g></svg>